<?xml version="1.0" encoding="utf-8"?>
<!-- Generator: Adobe Illustrator 18.1.1, SVG Export Plug-In . SVG Version: 6.00 Build 0)  -->
<svg version="1.1" id="Layer_1" xmlns="http://www.w3.org/2000/svg" xmlns:xlink="http://www.w3.org/1999/xlink" x="0px" y="0px"
	 viewBox="190.9 240.7 180.7 162.9" enable-background="new 190.9 240.7 180.7 162.9" xml:space="preserve">
<g>
	<path fill="#ED8868" stroke="#ED8868" stroke-width="0.5" d="M304.7,250.3c8.9-4.9,18.7-7.7,28.7-9.4c1.5,11.7,2.1,24.1-1.9,35.4
		c-13.8,8.2-24.1,21.3-31.4,35.5c-4.4,8.9-7.9,18.5-8.3,28.5c1.3-0.3,2.5-0.8,3.7-1.4c13.8-6.9,27.2-15.3,37.6-26.9
		c1.6-1.9,3.3-3.7,4.4-6c0.5-8-0.8-16.1-3.5-23.7c0.7,0.2,1.3,0.5,1.9,0.9c8.2,5.3,15.7,11.8,21.9,19.3c6,7.3,10.7,15.9,12.6,25.2
		c1.8,8.3,1,17.1-1.6,25.1c-3.2,9.6-8.8,18.2-15.4,25.9c-4.1,4.8-8.8,9-14.2,12.3c-10.2,6.3-21.9,9.7-33.6,11.2
		c-10.9,1.4-21.9,1.4-32.8,0.1c-8.9-1.1-17.7-2.9-26.1-6c-3.7-7.9-7.4-15.8-11.1-23.7c5.1-0.6,10.2-1.3,15.4-1.9
		c-4.1-5.1-8.6-9.9-12.8-14.9c2.8-6.3,5.6-12.6,8.4-18.8c-7.2,3.4-14.8,6.6-22.9,6.2c-3-0.1-5.6-1.6-8.1-3
		c-4.6-7.8-6.3-17.3-4.3-26.1c2.9-13,12.8-23.4,24.1-29.8c-2.1,7.1-3.3,14.5-2.7,21.9c3.8,6.1,9.2,11,14.7,15.6
		c8,6.5,16.9,11.9,26.2,16.5c1.6,0.7,3.1,1.9,4.9,1.8c4.4-0.1,8.8,0,13.2,0c-0.1-3.4-3.9-5.2-6.9-5c-2.5,0.1-4.9,1.4-6.1,3.6
		c-1.1-10.2-4.6-19.9-9.4-28.9c-7.2-13.4-17.2-25.8-30.5-33.6c-2.1-5.4-2.8-11.2-3-16.9c-0.2-6.1,0.2-12.3,1.1-18.3
		c1.6,0.1,3.2,0.5,4.8,0.8c8.3,1.8,16.4,4.3,23.8,8.5C277.7,244.8,292.4,244.7,304.7,250.3 M242.1,248.1c-0.7,4.7-0.3,9.5,0.8,14.1
		c4.1-3.9,8.6-7.3,13.6-9.9C252.1,249.8,247.1,248.9,242.1,248.1 M313.7,252.5c4,2,7.7,4.5,11,7.5c0.9,0.7,1.6,1.7,2.6,2.2
		c1-4.6,1.3-9.3,0.9-14C323.2,248.8,318,249.7,313.7,252.5z"/>
	<path fill="#FAF0DD" stroke="#FAF0DD" stroke-width="0.5" d="M242.1,248.1c5,0.8,10,1.7,14.4,4.3c-5,2.5-9.5,6-13.6,9.9
		C241.8,257.7,241.4,252.8,242.1,248.1z"/>
	<path fill="#FAF0DD" stroke="#FAF0DD" stroke-width="0.5" d="M313.7,252.5c4.3-2.8,9.5-3.7,14.5-4.3c0.5,4.7,0.1,9.4-0.9,14
		c-1-0.5-1.7-1.5-2.6-2.2C321.4,257.1,317.7,254.5,313.7,252.5z"/>
	<path fill="#FAF0DD" stroke="#FAF0DD" stroke-width="0.5" d="M238.7,276.3c13.3,7.8,23.3,20.2,30.5,33.6c4.8,9,8.3,18.7,9.4,28.9
		c0,0.3-0.1,1-0.1,1.4c-1.8,0.1-3.3-1.1-4.9-1.8c-9.3-4.6-18.1-10-26.2-16.5c-5.5-4.6-10.9-9.5-14.7-15.6
		c-0.7-7.4,0.6-14.8,2.7-21.9C236.3,281.6,237.4,278.9,238.7,276.3 M255.8,308.5c0.2,1.6,1.1,3.3,2.8,3.8c2.4,0.9,5.1-1.4,4.8-3.9
		c-0.7,0.9-1.2,2-2.3,2.5c-1.3,0.6-3.1,0.3-4-0.8C256.6,309.5,256.5,308.6,255.8,308.5z"/>
	<path fill="#FAF0DD" stroke="#FAF0DD" stroke-width="0.5" d="M300.1,311.9c7.3-14.2,17.5-27.3,31.4-35.5c1,1.9,1.8,3.9,2.6,6
		c2.7,7.6,4,15.7,3.5,23.7c-1.1,2.2-2.8,4.1-4.4,6c-10.4,11.6-23.8,20-37.6,26.9c-1.2,0.6-2.4,1.1-3.7,1.4
		C292.2,330.4,295.7,320.8,300.1,311.9 M306.7,308.4c0.2,1.8,1.2,3.6,3.1,3.9c2.4,0.6,4.8-1.7,4.6-4.1c-0.9,1.5-2.2,3.2-4.2,2.8
		C308.5,311.1,307.8,309.3,306.7,308.4z"/>
	<path fill="#4E4344" stroke="#4E4344" stroke-width="0.5" d="M255.8,308.5c0.7,0.2,0.9,1,1.3,1.5c0.9,1.2,2.7,1.4,4,0.8
		c1.1-0.5,1.6-1.6,2.3-2.5c0.3,2.5-2.4,4.8-4.8,3.9C256.9,311.8,256,310.1,255.8,308.5z"/>
	<path fill="#4E4344" stroke="#4E4344" stroke-width="0.5" d="M306.7,308.4c1.1,1,1.8,2.7,3.5,2.7c2,0.3,3.2-1.4,4.2-2.8
		c0.2,2.4-2.2,4.7-4.6,4.1C307.9,312,306.9,310.1,306.7,308.4z"/>
	<path fill="#F2E2C9" stroke="#F2E2C9" stroke-width="0.5" d="M191.9,328.4c2-0.7,3.9,0.6,5.6,1.4c6.1,3.3,11.9,7.1,18.1,10.4
		c2.5,1.4,5.2,2.9,8.1,3c8.1,0.4,15.7-2.9,22.9-6.2c-2.8,6.3-5.6,12.6-8.4,18.8c4.2,5,8.7,9.8,12.8,14.9c-5.1,0.6-10.2,1.3-15.4,1.9
		c3.6,7.9,7.3,15.8,11.1,23.7c-8.2-2.8-15.3-7.9-21.7-13.6c-14.8-13.4-25.6-30.9-33-49.3C191.3,331.8,190.6,329.8,191.9,328.4z"/>
	<path fill="#4E4344" stroke="#4E4344" stroke-width="0.5" d="M278.6,338.8c1.2-2.2,3.6-3.6,6.1-3.6c3-0.1,6.8,1.6,6.9,5
		c-4.4,0-8.8-0.1-13.2,0C278.5,339.8,278.6,339.1,278.6,338.8z"/>
</g>
<g id="txt">
	
		<text transform="matrix(1.4035 -0.1663 0.1176 0.9931 265.7861 376.2597)" font-family="'FranklinGothic-DemiCond'" font-size="32.7724">z Z z</text>
</g>
</svg>
